HIERARCHY
ROOT joint_Root
{
	OFFSET 0.0 0.0 0.0
	CHANNELS 6 Xposition Yposition Zposition Zrotation Xrotation Yrotation 
	JOINT Hips
	{
		OFFSET -0.726466 93.3139 -2.00062
		CHANNELS 6 Xposition Yposition Zposition Zrotation Xrotation Yrotation 
		JOINT Spine
		{
			OFFSET 15.7357 0.0 0.0
			CHANNELS 6 Xposition Yposition Zposition Zrotation Xrotation Yrotation 
			JOINT Chest
			{
				OFFSET 8.98455 -0.406207 0.0
				CHANNELS 6 Xposition Yposition Zposition Zrotation Xrotation Yrotation 
				JOINT Neck
				{
					OFFSET 16.3773 0.0 0.0
					CHANNELS 6 Xposition Yposition Zposition Zrotation Xrotation Yrotation 
					JOINT Head
					{
						OFFSET 6.45672 0.0 0.0
						CHANNELS 6 Xposition Yposition Zposition Zrotation Xrotation Yrotation 
						End Site
						{
							OFFSET 0.0 0.0 0.0
						}
					}
				}
				JOINT Shoulder_L
				{
					OFFSET 12.9942 -0.242716 4.98039
					CHANNELS 6 Xposition Yposition Zposition Zrotation Xrotation Yrotation 
					JOINT UpperArm_L
					{
						OFFSET 5.34809 0.0 0.0
						CHANNELS 6 Xposition Yposition Zposition Zrotation Xrotation Yrotation 
						JOINT LowerArm_L
						{
							OFFSET 24.3286 1.87007e-05 0.0
							CHANNELS 6 Xposition Yposition Zposition Zrotation Xrotation Yrotation 
							JOINT Hand_L
							{
								OFFSET 22.2916 0.0 0.0
								CHANNELS 6 Xposition Yposition Zposition Zrotation Xrotation Yrotation 
								End Site
								{
									OFFSET 0.0 0.0 0.0
								}
							}
						}
					}
				}
				JOINT Shoulder_R
				{
					OFFSET 12.9945 -0.242716 -4.98039
					CHANNELS 6 Xposition Yposition Zposition Zrotation Xrotation Yrotation 
					JOINT UpperArm_R
					{
						OFFSET -5.34813 0.0 0.0
						CHANNELS 6 Xposition Yposition Zposition Zrotation Xrotation Yrotation 
						JOINT LowerArm_R
						{
							OFFSET -24.3289 0.000322201 0.0
							CHANNELS 6 Xposition Yposition Zposition Zrotation Xrotation Yrotation 
							JOINT Hand_R
							{
								OFFSET -22.2915 -0.000108084 0.0
								CHANNELS 6 Xposition Yposition Zposition Zrotation Xrotation Yrotation 
								End Site
								{
									OFFSET 0.0 0.0 0.0
								}
							}
						}
					}
				}
			}
		}
		JOINT UpperLeg_L
		{
			OFFSET -2.19248 -6.46944 0.0
			CHANNELS 6 Xposition Yposition Zposition Zrotation Xrotation Yrotation 
			JOINT LowerLeg_L
			{
				OFFSET 39.0811 0.0 -1.23785e-05
				CHANNELS 6 Xposition Yposition Zposition Zrotation Xrotation Yrotation 
				JOINT Foot_L
				{
					OFFSET 40.9854 0.0 -1.26872e-05
					CHANNELS 6 Xposition Yposition Zposition Zrotation Xrotation Yrotation 
					JOINT Toes_L
					{
						OFFSET 11.7543 0.0 0.0
						CHANNELS 6 Xposition Yposition Zposition Zrotation Xrotation Yrotation 
						End Site
						{
							OFFSET 0.0 0.0 0.0
						}
					}
				}
			}
		}
		JOINT UpperLeg_R
		{
			OFFSET -2.19251 6.46944 0.0
			CHANNELS 6 Xposition Yposition Zposition Zrotation Xrotation Yrotation 
			JOINT LowerLeg_R
			{
				OFFSET -39.0811 -0.00228153 -0.0401928
				CHANNELS 6 Xposition Yposition Zposition Zrotation Xrotation Yrotation 
				JOINT Foot_R
				{
					OFFSET -40.9854 0.0 0.0
					CHANNELS 6 Xposition Yposition Zposition Zrotation Xrotation Yrotation 
					JOINT Toes_R
					{
						OFFSET -11.7543 0.0 0.0
						CHANNELS 6 Xposition Yposition Zposition Zrotation Xrotation Yrotation 
						End Site
						{
							OFFSET 0.0 0.0 0.0
						}
					}
				}
			}
		}
	}
}
MOTION
Frames:	6
Frame Time:	0.0333333
0.000000 0.000000 0.000000 0.000000 0.000000 -0.000000 -0.146870 92.265400 -1.048860 88.156100 -0.463595 4.392150 15.735700 0.000005 -0.000001 82.442700 85.400200 -81.948600 8.984550 -0.406207 -0.000000 1.359450 -1.236940 1.001900 16.377300 -0.000001 -0.000001 1.711130 -2.456560 0.421591 6.456720 -0.000001 -0.000000 5.157360 -2.480390 -1.046550 12.994200 -0.242716 4.980390 -90.116800 0.381110 -72.958100 5.348090 -0.000007 -0.000001 -67.562800 39.550300 -16.755300 24.328600 0.000019 0.000005 1.366230 3.353910 -22.177800 22.291600 -0.000001 0.000005 2.685200 5.471550 -5.425250 12.994500 -0.242716 -4.980390 88.146400 6.146160 -73.181200 -5.348130 -0.000001 -0.000004 -64.488700 40.128900 -17.730100 -24.328900 0.000322 -0.000009 3.182110 9.765660 -18.153000 -22.291500 -0.000108 -0.000004 5.895150 5.404850 -3.095070 -2.192480 -6.469440 -0.000000 -176.077000 -6.321380 -2.509470 39.081100 -0.000007 -0.000012 -0.093982 0.219332 23.194900 40.985400 -0.000006 -0.000013 0.131361 2.865130 -66.548800 11.754300 -0.000000 0.000003 -0.000039 -0.000453 -16.595200 -2.192510 6.469440 -0.000001 179.096000 14.977800 -179.176000 -39.081100 -0.002282 -0.040193 -0.012257 0.043943 19.521300 -40.985400 0.000008 0.000006 3.578350 5.889510 -66.299100 -11.754300 -0.000006 -0.000006 -0.006166 -0.072338 -19.517300
0.000000 0.000000 0.000000 0.000000 0.000000 -0.000000 -0.156657 92.252100 -1.057650 88.176000 -0.405425 4.527680 15.735700 0.000005 -0.000001 82.584700 85.379700 -82.115900 8.984550 -0.406207 -0.000000 1.402800 -1.218040 0.951737 16.377300 -0.000001 -0.000001 1.643510 -2.450410 0.420489 6.456720 -0.000001 -0.000000 5.198460 -2.450760 -1.000430 12.994200 -0.242716 4.980390 -90.130100 0.424175 -72.947800 5.348090 -0.000007 -0.000001 -66.122500 39.186000 -18.301200 24.328600 0.000019 0.000005 2.520460 6.005430 -22.812100 22.291600 -0.000001 0.000005 1.052050 5.463710 -5.133930 12.994500 -0.242716 -4.980390 88.171600 6.081170 -73.231000 -5.348130 -0.000001 -0.000004 -63.789100 39.586500 -18.295200 -24.328900 0.000322 -0.000009 3.563890 10.024800 -19.690800 -22.291500 -0.000108 -0.000004 3.448210 5.394870 -2.766930 -2.192480 -6.469440 -0.000000 -176.082000 -6.281500 -2.434460 39.081100 -0.000007 -0.000012 -0.093646 0.217640 23.281200 40.985400 -0.000006 -0.000013 0.131934 2.876110 -66.577100 11.754300 -0.000000 0.000003 -0.000042 -0.000483 -16.596300 -2.192510 6.469440 -0.000001 179.037000 14.993100 -179.091000 -39.081100 -0.002282 -0.040193 -0.015460 0.052671 19.625800 -40.985400 0.000008 0.000006 3.472710 5.856380 -66.332900 -11.754300 -0.000006 -0.000006 -0.006079 -0.071555 -19.485300
0.000000 0.000000 0.000000 0.000000 0.000000 -0.000000 -0.180754 92.251600 -1.126870 88.168500 -0.300418 4.649040 15.735700 0.000005 -0.000001 82.642700 85.365800 -82.192500 8.984550 -0.406207 -0.000000 1.431270 -1.211160 0.914789 16.377300 -0.000001 -0.000001 1.685520 -2.469440 0.437959 6.456720 -0.000001 -0.000000 5.110370 -2.540280 -0.973965 12.994200 -0.242716 4.980390 -90.193400 0.628452 -72.894900 5.348090 -0.000007 -0.000001 -63.208100 37.596400 -21.026900 24.328600 0.000019 0.000005 4.148740 9.078410 -24.685700 22.291600 -0.000001 0.000005 -0.086855 5.457640 -4.914220 12.994500 -0.242716 -4.980390 88.154400 6.110180 -73.157600 -5.348130 -0.000001 -0.000004 -61.831000 38.110100 -20.035300 -24.328900 0.000322 -0.000009 4.411250 10.745100 -22.482200 -22.291500 -0.000108 -0.000004 0.676087 5.376040 -2.172710 -2.192480 -6.469440 -0.000000 -176.028000 -6.361120 -2.390710 39.081100 -0.000007 -0.000012 -0.094203 0.218451 23.327300 40.985400 -0.000006 -0.000013 0.153960 3.050540 -66.547500 11.754300 -0.000000 0.000003 -0.000042 -0.000490 -16.596600 -2.192510 6.469440 -0.000001 179.072000 14.982900 -179.046000 -39.081100 -0.002282 -0.040193 -0.011858 0.042403 19.697300 -40.985400 0.000008 0.000006 3.622990 5.701920 -66.347900 -11.754300 -0.000006 -0.000006 -0.006091 -0.071661 -19.489700
0.000000 0.000000 0.000000 0.000000 0.000000 -0.000000 -0.190487 92.241100 -1.251180 88.202000 -0.248162 4.864550 15.735700 0.000005 -0.000001 82.751800 85.344500 -82.336300 8.984550 -0.406207 -0.000000 1.475350 -1.196960 0.845604 16.377300 -0.000001 -0.000001 1.894520 -2.497200 0.434356 6.456720 -0.000001 -0.000000 5.064130 -2.567020 -0.919905 12.994200 -0.242716 4.980390 -90.232500 0.756326 -72.909500 5.348090 -0.000007 -0.000001 -60.087700 33.483200 -24.189600 24.328600 0.000019 0.000005 4.701700 9.148980 -27.352600 22.291600 -0.000001 0.000005 0.100334 5.454040 -4.783250 12.994500 -0.242716 -4.980390 88.146600 6.048260 -72.927400 -5.348130 -0.000001 -0.000004 -58.754700 35.567500 -23.258100 -24.328900 0.000322 -0.000009 5.111240 10.566100 -26.007400 -22.291500 -0.000108 -0.000004 0.188016 5.367530 -1.910050 -2.192480 -6.469440 -0.000000 -176.037000 -6.301830 -2.326830 39.081100 -0.000007 -0.000012 -0.095329 0.219859 23.441100 40.985400 -0.000006 -0.000013 0.154972 3.076530 -66.512400 11.754300 -0.000000 0.000003 -0.000041 -0.000476 -16.596100 -2.192510 6.469440 -0.000001 178.986000 14.997900 -178.985000 -39.081100 -0.002282 -0.040193 -0.016782 0.055653 19.861200 -40.985400 0.000008 0.000006 3.459490 5.699370 -66.329300 -11.754300 -0.000006 -0.000006 -0.006191 -0.072565 -19.526500
0.000000 0.000000 0.000000 0.000000 0.000000 -0.000000 -0.224453 92.243800 -1.406260 88.202900 -0.150885 5.101560 15.735700 0.000005 -0.000001 82.400000 85.339900 -82.007200 8.984550 -0.406207 -0.000000 1.477160 -1.253600 0.801020 16.377300 -0.000001 -0.000001 2.245740 -2.509410 0.366002 6.456720 -0.000001 -0.000000 5.167750 -2.572340 -0.778701 12.994200 -0.242716 4.980390 -90.204800 0.673651 -73.089500 5.348090 -0.000007 -0.000001 -57.598400 27.070100 -27.417200 24.328600 0.000019 0.000005 4.332350 7.312590 -30.767900 22.291600 -0.000001 0.000005 1.308810 5.461170 -5.039380 12.994500 -0.242716 -4.980390 88.171000 5.890840 -72.717700 -5.348130 -0.000001 -0.000004 -55.427500 31.213800 -27.403200 -24.328900 0.000322 -0.000009 5.782850 10.058500 -30.112400 -22.291500 -0.000108 -0.000004 1.258460 5.363950 -1.802750 -2.192480 -6.469440 -0.000000 -176.019000 -6.209500 -2.244330 39.081100 -0.000007 -0.000012 -0.092508 0.212707 23.504600 40.985400 -0.000006 -0.000013 0.149905 3.083350 -66.426500 11.754300 -0.000000 0.000003 -0.000037 -0.000439 -16.594700 -2.192510 6.469440 -0.000001 178.957000 15.018900 -178.878000 -39.081100 -0.002282 -0.040193 -0.020277 0.065092 19.927700 -40.985400 0.000008 0.000006 3.391220 5.654730 -66.253100 -11.754300 -0.000006 -0.000006 -0.006183 -0.072486 -19.523300
0.000000 0.000000 0.000000 0.000000 0.000000 -0.000000 -0.250457 92.243000 -1.569770 88.170500 -0.158069 5.327660 15.735700 0.000005 -0.000001 82.008300 85.357900 -81.625200 8.984550 -0.406207 -0.000000 1.432900 -1.311300 0.782122 16.377300 -0.000001 -0.000001 2.657300 -2.464650 0.354003 6.456720 -0.000001 -0.000000 5.443300 -2.504370 -0.732043 12.994200 -0.242716 4.980390 -90.133700 0.442536 -73.184900 5.348090 -0.000007 -0.000001 -54.961700 20.172100 -31.482000 24.328600 0.000019 0.000005 3.850930 5.602000 -34.593900 22.291600 -0.000001 0.000005 2.843580 5.473120 -5.481420 12.994500 -0.242716 -4.980390 88.235100 5.642070 -72.598000 -5.348130 -0.000001 -0.000004 -52.488200 25.336600 -32.232700 -24.328900 0.000322 -0.000009 6.387240 9.403520 -34.419900 -22.291500 -0.000108 -0.000004 2.834640 5.353760 -1.491740 -2.192480 -6.469440 -0.000000 -175.930000 -6.333940 -2.185870 39.081100 -0.000007 -0.000012 -0.091932 0.210278 23.614600 40.985400 -0.000006 -0.000013 0.166442 3.223720 -66.364400 11.754300 -0.000000 0.000003 -0.000037 -0.000438 -16.594600 -2.192510 6.469440 -0.000001 178.949000 15.071600 -178.789000 -39.081100 -0.002282 -0.040193 -0.024565 0.076702 19.979700 -40.985400 0.000008 0.000006 3.205000 5.723990 -66.139400 -11.754300 -0.000006 -0.000006 -0.006000 -0.070836 -19.456000
